<?xml version="1.0" ?><!DOCTYPE svg  PUBLIC '-//W3C//DTD SVG 1.1//EN'  'http://www.w3.org/Graphics/SVG/1.1/DTD/svg11.dtd'><svg enable-background="new 0 0 30 30" height="30px" id="Capa_1" version="1.1" viewBox="0 0 30 30" width="30px" xml:space="preserve" xmlns="http://www.w3.org/2000/svg" xmlns:xlink="http://www.w3.org/1999/xlink"><path d="M19.4,24.3c-0.4,0-0.8,0.3-0.8,0.8c0,1.9-1.5,3.4-3.4,3.4H7.1c-1.9,0-3.4-1.5-3.4-3.4V5  c0-1.9,1.5-3.4,3.4-3.4h8.1c1.9,0,3.4,1.5,3.4,3.4c0,0.4,0.3,0.8,0.8,0.8s0.8-0.3,0.8-0.8c0-2.7-2.2-4.9-4.9-4.9H7.1  C4.4,0.1,2.2,2.3,2.2,5V25c0,2.7,2.2,4.9,4.9,4.9h8.1c2.7,0,4.9-2.2,4.9-4.9C20.1,24.6,19.8,24.3,19.4,24.3z M12.5,25.7  c0-0.7-0.6-1.3-1.3-1.3c-0.7,0-1.3,0.6-1.3,1.3s0.6,1.3,1.3,1.3C12,27,12.5,26.4,12.5,25.7z M26.8,21c-3,1-6.2,0.5-9.7,0  c-3.6-0.5-7.4-1.1-10.8,0.3c-0.4,0.2-0.6,0.6-0.4,1c0.2,0.4,0.6,0.6,1,0.4c3-1.3,6.4-0.7,10-0.2c2,0.3,3.9,0.6,5.9,0.6  c1.5,0,3-0.2,4.5-0.7c0.4-0.1,0.6-0.6,0.5-1C27.6,21.1,27.2,20.9,26.8,21z M19.1,13.6c-0.1-0.2-0.2-0.3-0.4-0.4  c-0.2-0.1-0.3-0.2-0.5-0.3c-0.2-0.1-0.4-0.2-0.6-0.2c0-0.5,0-0.9,0-1.4c0.2,0,0.3,0.1,0.4,0.2c0.1,0.1,0.2,0.2,0.3,0.3  s0.1,0.2,0.2,0.3c0.1,0.1,0.1,0.1,0.2,0.1c0.1,0,0.2,0,0.3-0.1c0.1-0.1,0.1-0.2,0.1-0.3c0-0.2,0-0.3-0.2-0.5  c-0.1-0.1-0.2-0.3-0.4-0.4c-0.2-0.1-0.3-0.2-0.5-0.2c-0.2,0-0.4-0.1-0.5-0.1c0-0.1,0-0.1,0-0.2c0-0.1,0-0.1-0.1-0.2  s-0.1-0.1-0.2-0.1c-0.1,0-0.1,0-0.2,0.1c0,0-0.1,0.1,0,0.2c0,0,0,0.1,0,0.1c-0.2,0-0.5,0.1-0.7,0.2c-0.2,0.1-0.4,0.2-0.6,0.3  c-0.2,0.1-0.3,0.3-0.3,0.4c-0.1,0.2-0.1,0.4-0.1,0.6c0,0.4,0.2,0.6,0.5,0.9c0.3,0.2,0.7,0.5,1.1,0.6c0,0.5,0,1,0,1.5  c-0.2,0-0.3-0.1-0.4-0.1c-0.1-0.1-0.2-0.1-0.2-0.2c0-0.1-0.1-0.2-0.1-0.3c0-0.1,0-0.2-0.1-0.3c0-0.1-0.1-0.1-0.1-0.2  c-0.1-0.1-0.1-0.1-0.3-0.1c-0.1,0-0.2,0-0.3,0.1c-0.1,0.1-0.1,0.2-0.1,0.3c0,0.1,0,0.3,0.1,0.5c0.1,0.2,0.2,0.3,0.3,0.5  c0.1,0.1,0.3,0.3,0.5,0.4c0.2,0.1,0.5,0.1,0.8,0.1c0,0.1,0,0.3,0,0.4c0,0.1,0,0.1,0.1,0.1c0,0,0.1,0.1,0.2,0.1c0.1,0,0.1,0,0.2-0.1  c0,0,0.1-0.1,0-0.2c0-0.1,0-0.3,0-0.4c0.3,0,0.5-0.1,0.8-0.2c0.2-0.1,0.4-0.2,0.6-0.3s0.3-0.3,0.3-0.4c0.1-0.2,0.1-0.3,0.1-0.6  C19.2,14,19.2,13.8,19.1,13.6z M16.6,12.2c-0.1-0.1-0.2-0.3-0.2-0.4c0-0.1,0-0.1,0-0.2s0.1-0.1,0.1-0.2c0.1-0.1,0.1-0.1,0.2-0.1  c0.1,0,0.2-0.1,0.3-0.1c0,0.4,0,0.8,0,1.3C16.9,12.4,16.8,12.3,16.6,12.2z M18.3,14.6c0,0.1-0.1,0.1-0.2,0.2  c-0.1,0.1-0.2,0.1-0.3,0.1s-0.2,0-0.3,0.1c0-0.5,0-0.9,0-1.4c0.1,0,0.2,0.1,0.3,0.1c0.1,0,0.2,0.1,0.3,0.1c0.1,0.1,0.1,0.1,0.2,0.2  c0.1,0.1,0.1,0.2,0.1,0.3C18.4,14.4,18.4,14.5,18.3,14.6z M27.5,6.5c-0.2-0.1-0.5-0.2-0.7-0.1c-1.2,0.5-2.6,0.8-4.3,0.8  c-2,0-4.1-0.3-6.1-0.7c-2-0.3-4.1-0.7-6-0.7c-1.6,0-2.9,0.2-4.1,0.7C6,6.7,5.8,7,5.8,7.3v12.2c0,0.2,0.1,0.5,0.3,0.6  c0.2,0.1,0.5,0.2,0.7,0.1c1.3-0.5,2.7-0.8,4.4-0.8c1.8,0,3.7,0.3,5.6,0.6c1.9,0.3,3.9,0.6,5.9,0.6c1.7,0,3.1-0.2,4.5-0.7  c0.3-0.1,0.5-0.4,0.5-0.7V7.1C27.8,6.9,27.7,6.6,27.5,6.5z M26.3,18.6c-1,0.3-2.2,0.4-3.5,0.4c-1.8,0-3.8-0.3-5.7-0.6  c-1.9-0.3-3.9-0.6-5.8-0.6c-1.5,0-2.8,0.2-4,0.5V7.8c0.9-0.3,1.8-0.4,3-0.4c1.8,0,3.7,0.3,5.8,0.6c2.1,0.3,4.3,0.7,6.4,0.7  c1.4,0,2.7-0.2,3.8-0.5V18.6z" fill="#262324"/></svg>